<?xml version="1.0" encoding="UTF-8" standalone="no"?>
<!-- Created with Inkscape (http://www.inkscape.org/) -->

<svg
   xmlns:dc="http://purl.org/dc/elements/1.1/"
   xmlns:cc="http://creativecommons.org/ns#"
   xmlns:rdf="http://www.w3.org/1999/02/22-rdf-syntax-ns#"
   xmlns:svg="http://www.w3.org/2000/svg"
   xmlns="http://www.w3.org/2000/svg"
   xmlns:sodipodi="http://sodipodi.sourceforge.net/DTD/sodipodi-0.dtd"
   xmlns:inkscape="http://www.inkscape.org/namespaces/inkscape"
   width="100%"
   height="800"
   viewBox="0 0 800 800"
   version="1.1"
   id="svg8"
   inkscape:version="0.92.2 2405546, 2018-03-11"
   sodipodi:docname="_direct.svg">
  <defs
     id="defs2" />
  <sodipodi:namedview
     id="base"
     pagecolor="#ffffff"
     bordercolor="#666666"
     borderopacity="1.0"
     inkscape:pageopacity="0.0"
     inkscape:pageshadow="2"
     inkscape:zoom="1"
     inkscape:cx="315.35451"
     inkscape:cy="63.542797"
     inkscape:document-units="px"
     inkscape:current-layer="layer1"
     showgrid="false"
     units="px"
     borderlayer="true"
     inkscape:showpageshadow="false"
     inkscape:window-width="3440"
     inkscape:window-height="1376"
     inkscape:window-x="0"
     inkscape:window-y="61"
     inkscape:window-maximized="1">
    <inkscape:grid
       type="xygrid"
       id="grid1583" />
  </sodipodi:namedview>
  <metadata
     id="metadata5">
    <rdf:RDF>
      <cc:Work
         rdf:about="">
        <dc:format>image/svg+xml</dc:format>
        <dc:type
           rdf:resource="http://purl.org/dc/dcmitype/StillImage" />
        <dc:title />
      </cc:Work>
    </rdf:RDF>
  </metadata>
  <g
     inkscape:label="Layer 1"
     inkscape:groupmode="layer"
     id="layer1"
     transform="translate(0,-85.333325)">
    <path
       style="opacity:1;vector-effect:none;fill:#d0d0ca;fill-opacity:1;stroke:none;stroke-width:6.64850092;stroke-linecap:butt;stroke-linejoin:miter;stroke-miterlimit:4;stroke-dasharray:none;stroke-dashoffset:0;stroke-opacity:1"
       d="m 391.67038,105.86428 v 0.004 l -116.28455,0.36292 -31.72337,15.60563 c 0,0 -14.70652,-8.43301 -23.6487,-3.17291 0,0 -96.73134,45.31648 -125.76298,75.96289 -8.381045,8.84723 -56.006411,169.89468 -73.512056,258.6457 C 13.364638,490.65798 7.5551752,568.74869 7.5551752,568.74869 l 7.7956448,7.23762 c 0,0 -3.517712,-2.91264 -9.2828655,-1.05291 0,0 3.7819328,46.54001 17.4582205,60.2163 13.676278,13.67637 31.863834,32.27542 55.130438,31.67732 19.520126,-0.50187 40.078327,-20.85626 48.514207,-29.7644 8.72977,-9.21855 22.83749,-28.46431 22.83749,-28.46431 l -2.1028,-2.10281 4.20562,-2.1057 87.06956,-127.36234 c 13.04604,-15.14275 28.75862,-16.89159 40.10297,-16.89159 l 89.67866,0.12646 0.18696,3.38576 24.10033,-0.15256 30.40959,0.15256 0.18708,-3.38576 89.67868,-0.12646 c 11.34436,0 27.05694,1.74884 40.10298,16.89159 l 87.06958,127.36234 4.20852,2.1057 -2.10571,2.10281 c 0,0 14.10771,19.24576 22.83752,28.46415 8.4359,8.9081 28.99403,29.26285 48.51419,29.7644 23.26667,0.5981 41.45418,-18.00107 55.13047,-31.67732 13.67625,-13.67633 17.45817,-60.21638 17.45817,-60.21638 -5.76514,-1.85973 -9.27997,1.05287 -9.27997,1.05287 l 7.79276,-7.23758 c 0,0 -5.80657,-78.09063 -13.18065,-115.4762 -17.5057,-88.75102 -65.13379,-249.79847 -73.51493,-258.64554 -29.03157,-30.64649 -125.76011,-75.96297 -125.76011,-75.96297 -8.94222,-5.26006 -23.65163,3.17295 -23.65163,3.17295 l -31.72052,-15.60571 -116.28739,-0.36292 v -0.004 l -7.88851,0.004 z"
       id="path885"
       inkscape:connector-curvature="0"
       sodipodi:nodetypes="ccccccscccccccccccccccccccccccccccssccccccc" />
    <path
       style="opacity:1;vector-effect:none;fill:#ffffff;fill-opacity:1;stroke:#babdb6;stroke-width:2.21616673;stroke-linecap:butt;stroke-linejoin:miter;stroke-miterlimit:4;stroke-dasharray:none;stroke-dashoffset:0;stroke-opacity:1"
       d="m 7.5551752,568.75279 7.7956448,7.23762 132.5547,30.50919 4.2056,-2.10571 87.06956,-127.36234 c 9.01064,-13.71186 24.35545,-20.36976 42.37671,-19.97798 l 8.03454,-0.20635 -0.24746,-130.14045 c 1.93256,-7.21245 -1.65574,-11.77806 -6.72374,-16.84602 l -105.27327,-66.76799 -67.16001,2.23867 -48.691006,50.92966 c 0,0 -30.376442,104.86908 -40.295996,158.94532 C 14.367202,492.45769 7.5551828,568.75263 7.5551828,568.75263 Z"
       id="path1533"
       inkscape:connector-curvature="0"
       sodipodi:nodetypes="ccccccccccccsc" />
    <path
       style="opacity:1;vector-effect:none;fill:#eeeeec;fill-opacity:1;stroke:#babdb6;stroke-width:2.21616673;stroke-linecap:butt;stroke-linejoin:bevel;stroke-miterlimit:4;stroke-dasharray:none;stroke-dashoffset:0;stroke-opacity:1;marker:none;marker-start:none;marker-mid:none;marker-end:none;paint-order:normal"
       d="M 328.35892,108.88013 H 459.11278 V 324.40237 H 328.35892 Z"
       id="rect1553"
       inkscape:connector-curvature="0" />
    <path
       style="opacity:1;vector-effect:none;fill:#ffffff;fill-opacity:1;stroke:#babdb6;stroke-width:2.21616673;stroke-linecap:butt;stroke-linejoin:bevel;stroke-miterlimit:4;stroke-dasharray:none;stroke-dashoffset:0;stroke-opacity:1;marker:none;marker-start:none;marker-mid:none;marker-end:none;paint-order:normal"
       d="M 328.35892,426.26987 H 459.11278 V 323.21809 H 328.35892 Z"
       id="rect1569"
       inkscape:connector-curvature="0" />
    <g
       aria-label="racefpv.eu"
       style="font-style:normal;font-variant:normal;font-weight:bold;font-stretch:normal;font-size:19.95506859px;line-height:1.25;font-family:Montserrat;-inkscape-font-specification:'Montserrat, Bold';font-variant-ligatures:normal;font-variant-caps:normal;font-variant-numeric:normal;font-feature-settings:normal;text-align:start;letter-spacing:0px;word-spacing:0px;writing-mode:lr-tb;text-anchor:start;fill:#babdb6;fill-opacity:1;stroke:none;stroke-width:0.23939951"
       id="text1577"
       transform="translate(0,-43)">
      <path
         d="m 344.40748,397.80809 v -1.41681 h -2.97331 v 10.73583 h 3.11299 v -5.06859 c 0,-2.05537 1.13744,-2.99326 2.85358,-2.99326 0.23946,0 0.43901,0.0199 0.69842,0.0399 v -2.87353 c -1.65627,0 -2.93339,0.53879 -3.69168,1.57645 z"
         style="fill:#babdb6;fill-opacity:1;stroke-width:0.23939951"
         id="path940"
         inkscape:connector-curvature="0" />
      <path
         d="m 354.22194,396.23164 c -1.71614,0 -3.45223,0.45896 -4.62958,1.29708 l 1.11749,2.1751 c 0.77825,-0.61861 1.9556,-0.99775 3.09303,-0.99775 1.67623,0 2.47443,0.77824 2.47443,2.11523 h -2.47443 c -3.27263,0 -4.60962,1.31704 -4.60962,3.21277 0,1.85582 1.49663,3.25268 4.01097,3.25268 1.57645,0 2.69394,-0.51884 3.27263,-1.49663 v 1.33699 h 2.91344 v -6.12621 c 0,-3.25268 -1.89573,-4.76926 -5.16836,-4.76926 z m -0.23946,8.95982 c -1.09753,0 -1.75605,-0.51883 -1.75605,-1.29708 0,-0.71838 0.45897,-1.25716 1.91569,-1.25716 h 2.13519 v 1.09752 c -0.35919,0.9778 -1.25717,1.45672 -2.29483,1.45672 z"
         style="fill:#babdb6;fill-opacity:1;stroke-width:0.23939951"
         id="path942"
         inkscape:connector-curvature="0" />
      <path
         d="m 367.51295,407.28675 c 2.25492,0 4.03093,-0.99776 4.80917,-2.71389 l -2.41456,-1.31704 c -0.5787,1.03767 -1.43677,1.47668 -2.41456,1.47668 -1.57645,0 -2.81367,-1.09753 -2.81367,-2.97331 0,-1.87577 1.23722,-2.9733 2.81367,-2.9733 0.97779,0 1.83586,0.45896 2.41456,1.47667 l 2.41456,-1.29708 c -0.77824,-1.75604 -2.55425,-2.73384 -4.80917,-2.73384 -3.49214,0 -5.98652,2.29483 -5.98652,5.52755 0,3.23272 2.49438,5.52756 5.98652,5.52756 z"
         style="fill:#babdb6;fill-opacity:1;stroke-width:0.23939951"
         id="path944"
         inkscape:connector-curvature="0" />
      <path
         d="m 384.4944,401.7991 c 0,-3.45222 -2.43452,-5.56746 -5.58742,-5.56746 -3.27263,0 -5.7271,2.31479 -5.7271,5.52755 0,3.19281 2.41456,5.52756 6.12621,5.52756 1.93564,0 3.43227,-0.59866 4.43002,-1.73609 l -1.65627,-1.79596 c -0.73834,0.69843 -1.5565,1.03766 -2.69393,1.03766 -1.63632,0 -2.77376,-0.81816 -3.07309,-2.15514 h 8.12172 c 0.0199,-0.25942 0.0599,-0.59866 0.0599,-0.83812 z m -5.56746,-3.21276 c 1.39685,0 2.41456,0.87802 2.63407,2.23496 h -5.2881 c 0.21951,-1.3769 1.23722,-2.23496 2.65403,-2.23496 z"
         style="fill:#babdb6;fill-opacity:1;stroke-width:0.23939951"
         id="path946"
         inkscape:connector-curvature="0" />
      <path
         d="m 389.97924,396.17177 c 0,-1.05762 0.49888,-1.55649 1.41681,-1.55649 0.47892,0 0.91793,0.13968 1.25717,0.37914 l 0.81816,-2.25492 c -0.5787,-0.3991 -1.49663,-0.5787 -2.37466,-0.5787 -2.67398,0 -4.15065,1.57645 -4.15065,3.99102 v 0.47892 h -1.65627 v 2.39461 h 1.65627 v 8.10176 h 3.11299 v -8.10176 h 2.67398 v -2.39461 h -2.7538 z"
         style="fill:#babdb6;fill-opacity:1;stroke-width:0.23939951"
         id="path948"
         inkscape:connector-curvature="0" />
      <path
         d="m 402.2276,396.23164 c -1.43677,0 -2.59416,0.45896 -3.37241,1.39685 v -1.23721 h -2.9733 v 14.60711 h 3.11299 v -5.00872 c 0.7982,0.87802 1.89573,1.29708 3.23272,1.29708 3.01321,0 5.34796,-2.15515 5.34796,-5.52756 0,-3.3724 -2.33475,-5.52755 -5.34796,-5.52755 z m -0.53879,8.50086 c -1.55649,0 -2.73384,-1.11749 -2.73384,-2.97331 0,-1.85582 1.17735,-2.9733 2.73384,-2.9733 1.5565,0 2.73385,1.11748 2.73385,2.9733 0,1.85582 -1.17735,2.97331 -2.73385,2.97331 z"
         style="fill:#babdb6;fill-opacity:1;stroke-width:0.23939951"
         id="path950"
         inkscape:connector-curvature="0" />
      <path
         d="m 416.99092,396.39128 -3.07308,7.30355 -2.9733,-7.30355 h -3.21277 l 4.50985,10.73583 h 3.21276 l 4.5298,-10.73583 z"
         style="fill:#babdb6;fill-opacity:1;stroke-width:0.23939951"
         id="path952"
         inkscape:connector-curvature="0" />
      <path
         d="m 421.8082,407.28675 c 1.07757,0 1.93564,-0.81816 1.93564,-1.9556 0,-1.15739 -0.85807,-1.91569 -1.93564,-1.91569 -1.07758,0 -1.93564,0.7583 -1.93564,1.91569 0,1.13744 0.85806,1.9556 1.93564,1.9556 z"
         style="fill:#babdb6;fill-opacity:1;stroke-width:0.23939951"
         id="path954"
         inkscape:connector-curvature="0" />
      <path
         d="m 436.21389,401.7991 c 0,-3.45222 -2.43452,-5.56746 -5.58742,-5.56746 -3.27263,0 -5.7271,2.31479 -5.7271,5.52755 0,3.19281 2.41456,5.52756 6.1262,5.52756 1.93564,0 3.43227,-0.59866 4.43003,-1.73609 l -1.65627,-1.79596 c -0.73834,0.69843 -1.5565,1.03766 -2.69394,1.03766 -1.63631,0 -2.77375,-0.81816 -3.07308,-2.15514 h 8.12171 c 0.02,-0.25942 0.0599,-0.59866 0.0599,-0.83812 z m -5.56746,-3.21276 c 1.39685,0 2.41456,0.87802 2.63406,2.23496 h -5.28809 c 0.21951,-1.3769 1.23722,-2.23496 2.65403,-2.23496 z"
         style="fill:#babdb6;fill-opacity:1;stroke-width:0.23939951"
         id="path956"
         inkscape:connector-curvature="0" />
      <path
         d="m 445.98906,396.39128 v 5.30805 c 0,1.97555 -1.03766,2.89348 -2.47443,2.89348 -1.3769,0 -2.1751,-0.7982 -2.1751,-2.59416 v -5.60737 h -3.11299 v 6.06634 c 0,3.31254 1.89573,4.82913 4.58967,4.82913 1.31703,0 2.51433,-0.49888 3.33249,-1.43677 v 1.27713 h 2.95335 v -10.73583 z"
         style="fill:#babdb6;fill-opacity:1;stroke-width:0.23939951"
         id="path958"
         inkscape:connector-curvature="0" />
    </g>
    <g
       id="g1587"
       transform="matrix(6.4382156,0,0,6.4382156,-93.599048,-667.08821)">
      <path
         style="opacity:1;vector-effect:none;fill:#babdb6;fill-opacity:1;stroke:none;stroke-width:0.26574081;stroke-linecap:butt;stroke-linejoin:bevel;stroke-miterlimit:4;stroke-dasharray:none;stroke-dashoffset:0;stroke-opacity:1;marker:none;marker-start:none;marker-mid:none;marker-end:none;paint-order:normal"
         d="m 82.554356,153.06467 h 0.785038 c 0.148992,0 0.26894,0.11994 0.26894,0.26894 v 0.22279 c 0,0.14899 -0.119948,0.26894 -0.26894,0.26894 h -0.785038 c -0.148993,0 -0.26894,-0.11995 -0.26894,-0.26894 v -0.22279 c 0,-0.149 0.119947,-0.26894 0.26894,-0.26894 z"
         id="rect1579"
         inkscape:connector-curvature="0" />
      <path
         style="opacity:1;vector-effect:none;fill:#babdb6;fill-opacity:1;stroke:none;stroke-width:0.26458332;stroke-linecap:butt;stroke-linejoin:bevel;stroke-miterlimit:4;stroke-dasharray:none;stroke-dashoffset:0;stroke-opacity:1;marker:none;marker-start:none;marker-mid:none;marker-end:none;paint-order:normal"
         d="m 82.837975,150.15623 h 0.245684 v 3.62972 h -0.245684 z"
         id="rect1581"
         inkscape:connector-curvature="0" />
    </g>
    <g
       id="g1593"
       transform="matrix(6.4382156,0,0,6.4382156,-107.22661,-667.08821)"
       style="fill:#12121c">
      <path
         style="opacity:1;vector-effect:none;fill:#12121c;fill-opacity:1;stroke:none;stroke-width:0.26574081;stroke-linecap:butt;stroke-linejoin:bevel;stroke-miterlimit:4;stroke-dasharray:none;stroke-dashoffset:0;stroke-opacity:1;marker:none;marker-start:none;marker-mid:none;marker-end:none;paint-order:normal"
         d="m 82.554356,153.06467 h 0.785038 c 0.148992,0 0.26894,0.11994 0.26894,0.26894 v 0.31715 h -1.322918 v -0.31715 c 0,-0.149 0.119947,-0.26894 0.26894,-0.26894 z"
         id="rect1589"
         inkscape:connector-curvature="0"
         sodipodi:nodetypes="sssccss" />
      <path
         style="opacity:1;vector-effect:none;fill:#12121c;fill-opacity:1;stroke:none;stroke-width:0.26458332;stroke-linecap:butt;stroke-linejoin:bevel;stroke-miterlimit:4;stroke-dasharray:none;stroke-dashoffset:0;stroke-opacity:1;marker:none;marker-start:none;marker-mid:none;marker-end:none;paint-order:normal"
         d="m 82.837975,150.15623 h 0.245681 v 3.49181 h -0.245681 z"
         id="rect1591"
         inkscape:connector-curvature="0" />
    </g>
    <g
       transform="matrix(6.4382156,0,0,6.4382156,-120.85416,-667.08821)"
       id="g1599"
       style="fill:#d7242d">
      <path
         style="opacity:1;vector-effect:none;fill:#d7242d;fill-opacity:1;stroke:none;stroke-width:0.26574081;stroke-linecap:butt;stroke-linejoin:bevel;stroke-miterlimit:4;stroke-dasharray:none;stroke-dashoffset:0;stroke-opacity:1;marker:none;marker-start:none;marker-mid:none;marker-end:none;paint-order:normal"
         d="m 82.554356,153.06467 h 0.785038 c 0.148992,0 0.26894,0.11994 0.26894,0.26894 v 0.30989 h -1.322918 v -0.30989 c 0,-0.149 0.119947,-0.26894 0.26894,-0.26894 z"
         id="rect1595"
         inkscape:connector-curvature="0"
         sodipodi:nodetypes="sssccss" />
      <path
         style="opacity:1;vector-effect:none;fill:#d7242d;fill-opacity:1;stroke:none;stroke-width:0.26320407;stroke-linecap:butt;stroke-linejoin:bevel;stroke-miterlimit:4;stroke-dasharray:none;stroke-dashoffset:0;stroke-opacity:1;marker:none;marker-start:none;marker-mid:none;marker-end:none;paint-order:normal"
         d="m 82.837975,150.15623 h 0.237301 v 3.46945 h -0.237301 z"
         id="rect1597"
         inkscape:connector-curvature="0" />
    </g>
    <g
       id="g1605"
       transform="matrix(6.4382156,0,0,6.4382156,-134.48172,-667.08821)">
      <path
         style="opacity:1;vector-effect:none;fill:#babdb6;fill-opacity:1;stroke:none;stroke-width:0.26574081;stroke-linecap:butt;stroke-linejoin:bevel;stroke-miterlimit:4;stroke-dasharray:none;stroke-dashoffset:0;stroke-opacity:1;marker:none;marker-start:none;marker-mid:none;marker-end:none;paint-order:normal"
         d="m 82.554356,153.06467 h 0.785038 c 0.148992,0 0.26894,0.11994 0.26894,0.26894 v 0.22279 c 0,0.14899 -0.119948,0.26894 -0.26894,0.26894 h -0.785038 c -0.148993,0 -0.26894,-0.11995 -0.26894,-0.26894 v -0.22279 c 0,-0.149 0.119947,-0.26894 0.26894,-0.26894 z"
         id="rect1601"
         inkscape:connector-curvature="0" />
      <path
         style="opacity:1;vector-effect:none;fill:#babdb6;fill-opacity:1;stroke:none;stroke-width:0.26458332;stroke-linecap:butt;stroke-linejoin:bevel;stroke-miterlimit:4;stroke-dasharray:none;stroke-dashoffset:0;stroke-opacity:1;marker:none;marker-start:none;marker-mid:none;marker-end:none;paint-order:normal"
         d="m 82.837975,150.15623 h 0.245684 v 3.62972 h -0.245684 z"
         id="rect1603"
         inkscape:connector-curvature="0" />
    </g>
    <g
       transform="matrix(6.4382156,0,0,6.4382156,-148.10927,-667.08821)"
       id="g1611">
      <path
         style="opacity:1;vector-effect:none;fill:#babdb6;fill-opacity:1;stroke:none;stroke-width:0.26574081;stroke-linecap:butt;stroke-linejoin:bevel;stroke-miterlimit:4;stroke-dasharray:none;stroke-dashoffset:0;stroke-opacity:1;marker:none;marker-start:none;marker-mid:none;marker-end:none;paint-order:normal"
         d="m 82.554356,153.06467 h 0.785038 c 0.148992,0 0.26894,0.11994 0.26894,0.26894 v 0.22279 c 0,0.14899 -0.119948,0.26894 -0.26894,0.26894 h -0.785038 c -0.148993,0 -0.26894,-0.11995 -0.26894,-0.26894 v -0.22279 c 0,-0.149 0.119947,-0.26894 0.26894,-0.26894 z"
         id="rect1607"
         inkscape:connector-curvature="0" />
      <path
         style="opacity:1;vector-effect:none;fill:#babdb6;fill-opacity:1;stroke:none;stroke-width:0.26458332;stroke-linecap:butt;stroke-linejoin:bevel;stroke-miterlimit:4;stroke-dasharray:none;stroke-dashoffset:0;stroke-opacity:1;marker:none;marker-start:none;marker-mid:none;marker-end:none;paint-order:normal"
         d="m 82.837975,150.15623 h 0.245684 v 3.62972 h -0.245684 z"
         id="rect1609"
         inkscape:connector-curvature="0" />
    </g>
    <g
       id="g1617"
       transform="matrix(6.4382156,0,0,6.4382156,-161.73684,-667.08821)"
       style="opacity:0.25500022">
      <path
         style="opacity:1;vector-effect:none;fill:#babdb6;fill-opacity:1;stroke:none;stroke-width:0.26574081;stroke-linecap:butt;stroke-linejoin:bevel;stroke-miterlimit:4;stroke-dasharray:none;stroke-dashoffset:0;stroke-opacity:1;marker:none;marker-start:none;marker-mid:none;marker-end:none;paint-order:normal"
         d="m 82.554356,153.06467 h 0.785038 c 0.148992,0 0.26894,0.11994 0.26894,0.26894 v 0.22279 c 0,0.14899 -0.119948,0.26894 -0.26894,0.26894 h -0.785038 c -0.148993,0 -0.26894,-0.11995 -0.26894,-0.26894 v -0.22279 c 0,-0.149 0.119947,-0.26894 0.26894,-0.26894 z"
         id="rect1613"
         inkscape:connector-curvature="0" />
      <path
         style="opacity:1;vector-effect:none;fill:#babdb6;fill-opacity:1;stroke:none;stroke-width:0.26458332;stroke-linecap:butt;stroke-linejoin:bevel;stroke-miterlimit:4;stroke-dasharray:none;stroke-dashoffset:0;stroke-opacity:1;marker:none;marker-start:none;marker-mid:none;marker-end:none;paint-order:normal"
         d="m 82.837975,150.15623 h 0.245684 v 3.62972 h -0.245684 z"
         id="rect1615"
         inkscape:connector-curvature="0" />
    </g>
    <g
       transform="matrix(6.4382156,0,0,6.4382156,-175.3644,-667.08821)"
       id="g1623"
       style="opacity:0.25500022">
      <path
         style="opacity:1;vector-effect:none;fill:#babdb6;fill-opacity:1;stroke:none;stroke-width:0.26574081;stroke-linecap:butt;stroke-linejoin:bevel;stroke-miterlimit:4;stroke-dasharray:none;stroke-dashoffset:0;stroke-opacity:1;marker:none;marker-start:none;marker-mid:none;marker-end:none;paint-order:normal"
         d="m 82.554356,153.06467 h 0.785038 c 0.148992,0 0.26894,0.11994 0.26894,0.26894 v 0.22279 c 0,0.14899 -0.119948,0.26894 -0.26894,0.26894 h -0.785038 c -0.148993,0 -0.26894,-0.11995 -0.26894,-0.26894 v -0.22279 c 0,-0.149 0.119947,-0.26894 0.26894,-0.26894 z"
         id="rect1619"
         inkscape:connector-curvature="0" />
      <path
         style="opacity:1;vector-effect:none;fill:#babdb6;fill-opacity:1;stroke:none;stroke-width:0.26458332;stroke-linecap:butt;stroke-linejoin:bevel;stroke-miterlimit:4;stroke-dasharray:none;stroke-dashoffset:0;stroke-opacity:1;marker:none;marker-start:none;marker-mid:none;marker-end:none;paint-order:normal"
         d="m 82.837975,150.15623 h 0.245684 v 3.62972 h -0.245684 z"
         id="rect1621"
         inkscape:connector-curvature="0" />
    </g>
    <g
       id="g1629"
       transform="matrix(6.4382156,0,0,6.4382156,-188.99197,-667.08821)"
       style="opacity:0.25500022">
      <path
         style="opacity:1;vector-effect:none;fill:#babdb6;fill-opacity:1;stroke:none;stroke-width:0.26574081;stroke-linecap:butt;stroke-linejoin:bevel;stroke-miterlimit:4;stroke-dasharray:none;stroke-dashoffset:0;stroke-opacity:1;marker:none;marker-start:none;marker-mid:none;marker-end:none;paint-order:normal"
         d="m 82.554356,153.06467 h 0.785038 c 0.148992,0 0.26894,0.11994 0.26894,0.26894 v 0.22279 c 0,0.14899 -0.119948,0.26894 -0.26894,0.26894 h -0.785038 c -0.148993,0 -0.26894,-0.11995 -0.26894,-0.26894 v -0.22279 c 0,-0.149 0.119947,-0.26894 0.26894,-0.26894 z"
         id="rect1625"
         inkscape:connector-curvature="0" />
      <path
         style="opacity:1;vector-effect:none;fill:#babdb6;fill-opacity:1;stroke:none;stroke-width:0.26458332;stroke-linecap:butt;stroke-linejoin:bevel;stroke-miterlimit:4;stroke-dasharray:none;stroke-dashoffset:0;stroke-opacity:1;marker:none;marker-start:none;marker-mid:none;marker-end:none;paint-order:normal"
         d="m 82.837975,150.15623 h 0.245684 v 3.62972 h -0.245684 z"
         id="rect1627"
         inkscape:connector-curvature="0" />
    </g>
    <g
       aria-label="1"
       style="font-style:normal;font-variant:normal;font-weight:bold;font-stretch:normal;font-size:7.9756074px;line-height:1.25;font-family:Montserrat;-inkscape-font-specification:'Montserrat, Bold';font-variant-ligatures:normal;font-variant-caps:normal;font-variant-numeric:normal;font-feature-settings:normal;text-align:center;letter-spacing:0px;word-spacing:0px;writing-mode:lr-tb;text-anchor:middle;fill:#000000;fill-opacity:1;stroke:none;stroke-width:0.10681806"
       id="text1633"
       transform="translate(0,-43)">
      <path
         d="m 439.36372,372.62105 v 1.03683 h 1.11658 v 4.5461 h 1.29205 v -5.58293 z"
         style="font-size:7.9756074px;text-align:center;text-anchor:middle;stroke-width:0.10681806"
         id="path975"
         inkscape:connector-curvature="0" />
    </g>
    <g
       aria-label="2"
       style="font-style:normal;font-variant:normal;font-weight:bold;font-stretch:normal;font-size:7.9756074px;line-height:1.25;font-family:Montserrat;-inkscape-font-specification:'Montserrat, Bold';font-variant-ligatures:normal;font-variant-caps:normal;font-variant-numeric:normal;font-feature-settings:normal;text-align:center;letter-spacing:0px;word-spacing:0px;writing-mode:lr-tb;text-anchor:middle;fill:#000000;fill-opacity:1;stroke:none;stroke-width:0.10681806"
       id="text1637"
       transform="translate(0,-43)">
      <path
         d="m 426.39632,377.1512 1.28408,-1.21229 c 0.7816,-0.72578 0.93314,-1.22027 0.93314,-1.76261 0,-1.0129 -0.82946,-1.65095 -2.07366,-1.65095 -1.00492,0 -1.78653,0.40675 -2.21722,1.03683 l 0.94113,0.60614 c 0.27117,-0.37485 0.67792,-0.55829 1.15646,-0.55829 0.59019,0 0.89327,0.25522 0.89327,0.69388 0,0.27117 -0.0877,0.55829 -0.58222,1.02885 l -2.15342,2.03378 v 0.83744 h 4.2191 v -1.05278 z"
         style="font-size:7.9756074px;text-align:center;text-anchor:middle;stroke-width:0.10681806"
         id="path978"
         inkscape:connector-curvature="0" />
    </g>
    <g
       aria-label="3"
       style="font-style:normal;font-variant:normal;font-weight:bold;font-stretch:normal;font-size:7.9756074px;line-height:1.25;font-family:Montserrat;-inkscape-font-specification:'Montserrat, Bold';font-variant-ligatures:normal;font-variant-caps:normal;font-variant-numeric:normal;font-feature-settings:normal;text-align:center;letter-spacing:0px;word-spacing:0px;writing-mode:lr-tb;text-anchor:middle;fill:#000000;fill-opacity:1;stroke:none;stroke-width:0.10681806"
       id="text1641"
       transform="translate(0,-43)">
      <path
         d="m 414.51491,374.8941 1.26015,-1.43561 v -0.83744 h -3.90805 v 1.03683 h 2.37673 l -1.14849,1.30003 v 0.85339 h 0.5902 c 0.73376,0 1.0448,0.26319 1.0448,0.6859 0,0.45461 -0.39878,0.7178 -1.0448,0.7178 -0.58222,0 -1.17241,-0.18343 -1.59512,-0.50246 l -0.50246,0.98898 c 0.54234,0.38283 1.34787,0.59817 2.12948,0.59817 1.58715,0 2.31293,-0.86137 2.31293,-1.80249 0,-0.82149 -0.51044,-1.44359 -1.51537,-1.6031 z"
         style="font-size:7.9756074px;text-align:center;text-anchor:middle;stroke-width:0.10681806"
         id="path981"
         inkscape:connector-curvature="0" />
    </g>
    <g
       aria-label="4"
       style="font-style:normal;font-variant:normal;font-weight:bold;font-stretch:normal;font-size:7.9756074px;line-height:1.25;font-family:Montserrat;-inkscape-font-specification:'Montserrat, Bold';font-variant-ligatures:normal;font-variant-caps:normal;font-variant-numeric:normal;font-feature-settings:normal;text-align:center;letter-spacing:0px;word-spacing:0px;writing-mode:lr-tb;text-anchor:middle;fill:#000000;fill-opacity:1;stroke:none;stroke-width:0.10681806"
       id="text1645"
       transform="translate(0,-43)">
      <path
         d="m 401.86239,375.97879 h -0.90921 v -1.04481 h -1.22027 v 1.04481 h -1.49942 l 2.44054,-3.35774 h -1.35585 l -2.63195,3.54117 v 0.86935 h 3.0068 v 1.17241 h 1.26015 v -1.17241 h 0.90921 z"
         style="font-size:7.9756074px;text-align:center;text-anchor:middle;stroke-width:0.10681806"
         id="path984"
         inkscape:connector-curvature="0" />
    </g>
    <g
       aria-label="5"
       style="font-style:normal;font-variant:normal;font-weight:bold;font-stretch:normal;font-size:7.9756074px;line-height:1.25;font-family:Montserrat;-inkscape-font-specification:'Montserrat, Bold';font-variant-ligatures:normal;font-variant-caps:normal;font-variant-numeric:normal;font-feature-settings:normal;text-align:center;letter-spacing:0px;word-spacing:0px;writing-mode:lr-tb;text-anchor:middle;fill:#000000;fill-opacity:1;stroke:none;stroke-width:0.10681806"
       id="text1649"
       transform="translate(0,-43)">
      <path
         d="m 384.83152,374.71864 h -0.45461 l 0.0877,-1.06076 h 2.32888 v -1.03683 h -3.40559 l -0.28712,3.14239 h 1.42764 c 1.0129,0 1.30002,0.28713 1.30002,0.72578 0,0.45461 -0.39878,0.72578 -1.0448,0.72578 -0.58222,0 -1.16444,-0.18343 -1.58715,-0.50246 l -0.51044,0.98898 c 0.54234,0.38283 1.35585,0.59817 2.12949,0.59817 1.59512,0 2.3209,-0.86137 2.3209,-1.85034 0,-0.98898 -0.654,-1.73071 -2.30495,-1.73071 z"
         style="font-size:7.9756074px;text-align:center;text-anchor:middle;stroke-width:0.10681806"
         id="path987"
         inkscape:connector-curvature="0" />
    </g>
    <g
       aria-label="GND"
       style="font-style:normal;font-variant:normal;font-weight:bold;font-stretch:normal;font-size:18.24548531px;line-height:1.25;font-family:Montserrat;-inkscape-font-specification:'Montserrat, Bold';font-variant-ligatures:normal;font-variant-caps:normal;font-variant-numeric:normal;font-feature-settings:normal;text-align:center;letter-spacing:0px;word-spacing:0px;writing-mode:lr-tb;text-anchor:middle;fill:#000000;fill-opacity:1;stroke:none;stroke-width:0.24436349"
       id="text1725"
       transform="translate(0,-43)">
      <path
         d="m 433.38823,325.12874 c -0.74806,0.4014 -1.49613,0.54737 -2.29893,0.54737 -2.44489,0 -4.14172,-1.69683 -4.14172,-4.08699 0,-2.42665 1.69683,-4.08699 4.17821,-4.08699 1.29543,0 2.37192,0.45614 3.30244,1.44139 l 1.89753,-1.75157 c -1.2407,-1.44139 -3.10174,-2.2077 -5.34593,-2.2077 -4.06874,0 -7.02451,2.75507 -7.02451,6.60487 0,3.84979 2.95577,6.60486 6.96977,6.60486 1.82455,0 3.75857,-0.56561 5.16348,-1.62385 v -5.18171 h -2.70034 z"
         style="font-size:18.24548531px;text-align:center;text-anchor:middle;stroke-width:0.24436349"
         id="path1024"
         inkscape:connector-curvature="0" />
      <path
         d="m 447.62855,315.2032 v 7.75433 l -6.34943,-7.75433 h -2.44489 v 12.77184 h 2.91927 v -7.75433 l 6.36768,7.75433 h 2.42665 V 315.2032 Z"
         style="font-size:18.24548531px;text-align:center;text-anchor:middle;stroke-width:0.24436349"
         id="path1026"
         inkscape:connector-curvature="0" />
      <path
         d="m 453.58741,327.97504 h 5.80207 c 4.17821,0 7.04275,-2.51788 7.04275,-6.38592 0,-3.86805 -2.86454,-6.38592 -7.04275,-6.38592 h -5.80207 z m 2.95577,-2.42665 v -7.91854 h 2.70033 c 2.53612,0 4.19646,1.51437 4.19646,3.95927 0,2.44489 -1.66034,3.95927 -4.19646,3.95927 z"
         style="font-size:18.24548531px;text-align:center;text-anchor:middle;stroke-width:0.24436349"
         id="path1028"
         inkscape:connector-curvature="0" />
    </g>
    <g
       aria-label="8V"
       style="font-style:normal;font-variant:normal;font-weight:bold;font-stretch:normal;font-size:18.24548531px;line-height:1.25;font-family:Montserrat;-inkscape-font-specification:'Montserrat, Bold';font-variant-ligatures:normal;font-variant-caps:normal;font-variant-numeric:normal;font-feature-settings:normal;text-align:center;letter-spacing:0px;word-spacing:0px;writing-mode:lr-tb;text-anchor:middle;fill:#d7242d;fill-opacity:1;stroke:none;stroke-width:0.24436349"
       id="text1729"
       transform="translate(0,-43)">
      <path
         d="m 413.68137,315.20314 -3.94102,9.12274 -3.88629,-9.12274 h -3.19296 l 5.51013,12.77184 h 2.91928 l 5.52838,-12.77184 z"
         style="font-size:18.24548531px;text-align:center;text-anchor:middle;fill:#d7242d;fill-opacity:1;stroke-width:0.24436349"
         id="path1033"
         inkscape:connector-curvature="0" />
    </g>
    <g
       transform="matrix(0.22667786,0,0,0.22667786,335.33709,107.76234)"
       id="g941"
       style="font-style:normal;font-variant:normal;font-weight:bold;font-stretch:normal;font-size:83.35466766px;line-height:1.25;font-family:Montserrat;-inkscape-font-specification:'Montserrat, Bold';font-variant-ligatures:normal;font-variant-caps:normal;font-variant-numeric:normal;font-feature-settings:normal;text-align:start;letter-spacing:0px;word-spacing:0px;writing-mode:lr-tb;text-anchor:start;fill:#d7242d;fill-opacity:1;stroke:none"
       aria-label="6">
      <path
         inkscape:connector-curvature="0"
         id="path939"
         d="m 275.23798,745.66231 c -6.08489,0 -11.00282,1.75044 -14.42036,5.16799 0.41677,-11.16953 6.66837,-16.921 16.42087,-16.921 3.91767,0 7.66863,0.75019 10.91946,2.91741 l 5.00128,-9.9192 c -4.08438,-2.584 -10.08591,-4.00103 -16.25416,-4.00103 -17.58783,0 -29.75762,11.25288 -29.75762,31.42471 0,18.83816 10.00256,28.92407 26.09001,28.92407 12.3365,0 22.08899,-7.50192 22.08899,-19.42164 0,-11.00281 -8.83559,-18.17131 -20.08847,-18.17131 z m -2.75071,27.50704 c -6.50166,0 -10.25262,-3.66761 -10.25262,-8.66889 0,-5.08463 4.16773,-8.75224 10.08591,-8.75224 6.00154,0 9.91921,3.41754 9.91921,8.75224 0,5.3347 -4.00103,8.66889 -9.7525,8.66889 z" />
    </g>
    <path
       style="opacity:1;vector-effect:none;fill:#d0d0ca;fill-opacity:1;stroke:none;stroke-width:1.27883458;stroke-linecap:butt;stroke-linejoin:bevel;stroke-miterlimit:4;stroke-dasharray:none;stroke-dashoffset:0;stroke-opacity:1;marker:none;marker-start:none;marker-mid:none;marker-end:none;paint-order:normal"
       d="M 396,494.33333 A 276.73972,182 0 0 0 286.5918,509.38997 V 843.44465 A 276.73972,182 0 0 0 396,858.33333 276.73972,182 0 0 0 505.3633,843.29036 V 509.20833 A 276.73972,182 0 0 0 396,494.33333 Z"
       id="path926"
       inkscape:connector-curvature="0" />
    <path
       style="opacity:1;vector-effect:none;fill:#ffffff;fill-opacity:1;stroke:#babdb6;stroke-width:1.98948002;stroke-linecap:butt;stroke-linejoin:miter;stroke-miterlimit:4;stroke-dasharray:none;stroke-dashoffset:0;stroke-opacity:1;marker:none;marker-start:none;marker-mid:none;marker-end:none;paint-order:normal"
       d="m 393.06344,806.21997 h 35.88587 v 27.1383 h -4.9504 l -3.00521,-5.02494 h -20.06415 l -3.00521,5.02494 h -4.8609 z"
       id="rect931"
       inkscape:connector-curvature="0"
       sodipodi:nodetypes="ccccccccc" />
    <path
       sodipodi:nodetypes="cccccccc"
       inkscape:connector-curvature="0"
       id="path1733"
       d="M 425.92099,299.64999 V 217.33333 H 236 v 643.37098 h 22.25299 c 0,-8.18178 14.54638,-8.87098 14.54638,0 h 132.70497 v -32.1163"
       style="opacity:1;vector-effect:none;fill:none;fill-opacity:1;stroke:#61a1d2;stroke-width:2.12400007;stroke-linecap:butt;stroke-linejoin:miter;stroke-miterlimit:4;stroke-dasharray:2.12400007, 2.12400007;stroke-dashoffset:0;stroke-opacity:1" />
    <path
       style="fill:none;stroke:#61a1d2;stroke-width:2.12400007;stroke-linecap:butt;stroke-linejoin:miter;stroke-miterlimit:4;stroke-dasharray:2.12400007, 2.12400007;stroke-dashoffset:0;stroke-opacity:1"
       d="M 412.11233,299.64999 V 233.33333 H 251.38921 v 634.94361 h 6.73579 c 0,-10.52672 15.125,-7.69582 15.125,0 h 137.71277 v -38.4515"
       id="path1735"
       inkscape:connector-curvature="0"
       sodipodi:nodetypes="cccccccc" />
    <circle
       style="opacity:1;vector-effect:none;fill:#828282;fill-opacity:1;stroke:#000000;stroke-width:2.21616673;stroke-linecap:butt;stroke-linejoin:miter;stroke-miterlimit:4;stroke-dasharray:none;stroke-dashoffset:0;stroke-opacity:1;marker:none;marker-start:none;marker-mid:none;marker-end:none;paint-order:normal"
       id="path1004"
       cx="405.5"
       cy="826.83331"
       r="2.5" />
    <path
       style="fill:none;stroke:#61a1d2;stroke-width:2.12439775;stroke-linecap:butt;stroke-linejoin:miter;stroke-miterlimit:4;stroke-dasharray:2.12439775, 2.12439775;stroke-dashoffset:0;stroke-opacity:1"
       d="M 385.55709,299.64999 V 247.63842 H 265 v 627.85151 h 151.72953 v -50.1566"
       id="path1739"
       inkscape:connector-curvature="0"
       sodipodi:nodetypes="cccccc" />
    <circle
       style="opacity:1;vector-effect:none;fill:#ffffff;fill-opacity:1;stroke:#babdb6;stroke-width:2.21616673;stroke-linecap:butt;stroke-linejoin:miter;stroke-miterlimit:4;stroke-dasharray:none;stroke-dashoffset:0;stroke-opacity:1;marker:none;marker-start:none;marker-mid:none;marker-end:none;paint-order:normal"
       id="circle1008"
       cx="416.63696"
       cy="826.83331"
       r="2.5" />
    <circle
       r="2.5"
       cy="826.83331"
       cx="410.97565"
       id="circle1006"
       style="opacity:1;vector-effect:none;fill:#e74747;fill-opacity:1;stroke:#ac1d2e;stroke-width:2.21616673;stroke-linecap:butt;stroke-linejoin:miter;stroke-miterlimit:4;stroke-dasharray:none;stroke-dashoffset:0;stroke-opacity:1;marker:none;marker-start:none;marker-mid:none;marker-end:none;paint-order:normal" />
    <path
       sodipodi:nodetypes="ccccccccc"
       inkscape:connector-curvature="0"
       id="path1010"
       d="m 436,806.21997 h 49.95561 v 27.1383 h -4.9504 L 478,828.33333 h -34.13389 l -3.00521,5.02494 H 436 Z"
       style="opacity:1;vector-effect:none;fill:#ffffff;fill-opacity:1;stroke:#babdb6;stroke-width:1.98948002;stroke-linecap:butt;stroke-linejoin:miter;stroke-miterlimit:4;stroke-dasharray:none;stroke-dashoffset:0;stroke-opacity:1;marker:none;marker-start:none;marker-mid:none;marker-end:none;paint-order:normal" />
    <path
       sodipodi:nodetypes="ccccccccccccsc"
       inkscape:connector-curvature="0"
       id="path1140"
       d="m 785.84408,568.75279 -7.79565,7.23762 -132.5547,30.50919 -4.2056,-2.10571 -87.06956,-127.36234 c -9.01064,-13.71186 -24.35545,-20.36976 -42.37671,-19.97798 l -8.03454,-0.20635 0.24746,-130.14045 c -1.93256,-7.21245 1.65574,-11.77806 6.72374,-16.84602 l 105.27327,-66.76799 67.16001,2.23867 48.69101,50.92966 c 0,0 30.37644,104.86908 40.29599,158.94532 6.83325,37.25128 13.64527,113.54622 13.64527,113.54622 z"
       style="opacity:1;vector-effect:none;fill:#ffffff;fill-opacity:1;stroke:#babdb6;stroke-width:2.21616673;stroke-linecap:butt;stroke-linejoin:miter;stroke-miterlimit:4;stroke-dasharray:none;stroke-dashoffset:0;stroke-opacity:1" />
    <path
       style="opacity:1;vector-effect:none;fill:none;fill-opacity:1;stroke:#61a1d2;stroke-width:2.12439775;stroke-linecap:butt;stroke-linejoin:miter;stroke-miterlimit:4;stroke-dasharray:2.12439775, 2.12439775;stroke-dashoffset:0;stroke-opacity:1"
       d="M 439.72968,299.64999 V 247.33333 H 720 V 873.3873 H 453.77471 v -45.05397"
       id="path1731"
       inkscape:connector-curvature="0"
       sodipodi:nodetypes="cccccc" />
    <circle
       r="2.5"
       cy="826.83331"
       cx="448.43655"
       id="circle1012"
       style="opacity:1;vector-effect:none;fill:#ffffff;fill-opacity:1;stroke:#babdb6;stroke-width:2.21616673;stroke-linecap:butt;stroke-linejoin:miter;stroke-miterlimit:4;stroke-dasharray:none;stroke-dashoffset:0;stroke-opacity:1;marker:none;marker-start:none;marker-mid:none;marker-end:none;paint-order:normal" />
    <circle
       style="opacity:1;vector-effect:none;fill:#ffffff;fill-opacity:1;stroke:#babdb6;stroke-width:2.21616673;stroke-linecap:butt;stroke-linejoin:miter;stroke-miterlimit:4;stroke-dasharray:none;stroke-dashoffset:0;stroke-opacity:1;marker:none;marker-start:none;marker-mid:none;marker-end:none;paint-order:normal"
       id="circle1014"
       cx="453.4747"
       cy="826.83331"
       r="2.5" />
    <circle
       r="2.5"
       cy="826.83331"
       cx="458.55704"
       id="circle1016"
       style="opacity:1;vector-effect:none;fill:#ffffff;fill-opacity:1;stroke:#babdb6;stroke-width:2.21616673;stroke-linecap:butt;stroke-linejoin:miter;stroke-miterlimit:4;stroke-dasharray:none;stroke-dashoffset:0;stroke-opacity:1;marker:none;marker-start:none;marker-mid:none;marker-end:none;paint-order:normal" />
    <circle
       style="opacity:1;vector-effect:none;fill:#ffffff;fill-opacity:1;stroke:#babdb6;stroke-width:2.21616673;stroke-linecap:butt;stroke-linejoin:miter;stroke-miterlimit:4;stroke-dasharray:none;stroke-dashoffset:0;stroke-opacity:1;marker:none;marker-start:none;marker-mid:none;marker-end:none;paint-order:normal"
       id="circle1018"
       cx="463.46255"
       cy="826.83331"
       r="2.5" />
    <circle
       r="2.5"
       cy="826.83331"
       cx="468.45651"
       id="circle1020"
       style="opacity:1;vector-effect:none;fill:#ffffff;fill-opacity:1;stroke:#babdb6;stroke-width:2.21616673;stroke-linecap:butt;stroke-linejoin:miter;stroke-miterlimit:4;stroke-dasharray:none;stroke-dashoffset:0;stroke-opacity:1;marker:none;marker-start:none;marker-mid:none;marker-end:none;paint-order:normal" />
    <circle
       style="opacity:1;vector-effect:none;fill:#ffffff;fill-opacity:1;stroke:#babdb6;stroke-width:2.21616673;stroke-linecap:butt;stroke-linejoin:miter;stroke-miterlimit:4;stroke-dasharray:none;stroke-dashoffset:0;stroke-opacity:1;marker:none;marker-start:none;marker-mid:none;marker-end:none;paint-order:normal"
       id="circle1022"
       cx="473.53885"
       cy="826.83331"
       r="2.5" />
    <g
       aria-label="5"
       style="font-style:normal;font-variant:normal;font-weight:bold;font-stretch:normal;font-size:7.9756074px;line-height:1.25;font-family:Montserrat;-inkscape-font-specification:'Montserrat, Bold';font-variant-ligatures:normal;font-variant-caps:normal;font-variant-numeric:normal;font-feature-settings:normal;text-align:center;letter-spacing:0px;word-spacing:0px;writing-mode:lr-tb;text-anchor:middle;fill:#000000;fill-opacity:1;stroke:none;stroke-width:0.10681806"
       id="text1649-6"
       transform="translate(31.928203,439.86938)">
      <path
         d="m 384.83152,374.71864 h -0.45461 l 0.0877,-1.06076 h 2.32888 v -1.03683 h -3.40559 l -0.28712,3.14239 h 1.42764 c 1.0129,0 1.30002,0.28713 1.30002,0.72578 0,0.45461 -0.39878,0.72578 -1.0448,0.72578 -0.58222,0 -1.16444,-0.18343 -1.58715,-0.50246 l -0.51044,0.98898 c 0.54234,0.38283 1.35585,0.59817 2.12949,0.59817 1.59512,0 2.3209,-0.86137 2.3209,-1.85034 0,-0.98898 -0.654,-1.73071 -2.30495,-1.73071 z"
         style="font-size:7.9756074px;text-align:center;text-anchor:middle;stroke-width:0.10681806"
         id="path987-2"
         inkscape:connector-curvature="0" />
    </g>
    <g
       aria-label="3"
       style="font-style:normal;font-variant:normal;font-weight:bold;font-stretch:normal;font-size:7.9756074px;line-height:1.25;font-family:Montserrat;-inkscape-font-specification:'Montserrat, Bold';font-variant-ligatures:normal;font-variant-caps:normal;font-variant-numeric:normal;font-feature-settings:normal;text-align:center;letter-spacing:0px;word-spacing:0px;writing-mode:lr-tb;text-anchor:middle;fill:#000000;fill-opacity:1;stroke:none;stroke-width:0.10681806"
       id="text1641-9"
       transform="translate(-3.5590744,439.99795)">
      <path
         d="m 414.51491,374.8941 1.26015,-1.43561 v -0.83744 h -3.90805 v 1.03683 h 2.37673 l -1.14849,1.30003 v 0.85339 h 0.5902 c 0.73376,0 1.0448,0.26319 1.0448,0.6859 0,0.45461 -0.39878,0.7178 -1.0448,0.7178 -0.58222,0 -1.17241,-0.18343 -1.59512,-0.50246 l -0.50246,0.98898 c 0.54234,0.38283 1.34787,0.59817 2.12948,0.59817 1.58715,0 2.31293,-0.86137 2.31293,-1.80249 0,-0.82149 -0.51044,-1.44359 -1.51537,-1.6031 z"
         style="font-size:7.9756074px;text-align:center;text-anchor:middle;stroke-width:0.10681806"
         id="path981-1"
         inkscape:connector-curvature="0" />
    </g>
    <g
       aria-label="2"
       style="font-style:normal;font-variant:normal;font-weight:bold;font-stretch:normal;font-size:7.9756074px;line-height:1.25;font-family:Montserrat;-inkscape-font-specification:'Montserrat, Bold';font-variant-ligatures:normal;font-variant-caps:normal;font-variant-numeric:normal;font-feature-settings:normal;text-align:center;letter-spacing:0px;word-spacing:0px;writing-mode:lr-tb;text-anchor:middle;fill:#000000;fill-opacity:1;stroke:none;stroke-width:0.10681806"
       id="text1637-7"
       transform="translate(-22.559819,439.90616)">
      <path
         d="m 426.39632,377.1512 1.28408,-1.21229 c 0.7816,-0.72578 0.93314,-1.22027 0.93314,-1.76261 0,-1.0129 -0.82946,-1.65095 -2.07366,-1.65095 -1.00492,0 -1.78653,0.40675 -2.21722,1.03683 l 0.94113,0.60614 c 0.27117,-0.37485 0.67792,-0.55829 1.15646,-0.55829 0.59019,0 0.89327,0.25522 0.89327,0.69388 0,0.27117 -0.0877,0.55829 -0.58222,1.02885 l -2.15342,2.03378 v 0.83744 h 4.2191 v -1.05278 z"
         style="font-size:7.9756074px;text-align:center;text-anchor:middle;stroke-width:0.10681806"
         id="path978-0"
         inkscape:connector-curvature="0" />
    </g>
    <circle
       style="opacity:1;vector-effect:none;fill:#babdb6;fill-opacity:1;stroke:none;stroke-width:2.12400007;stroke-linecap:butt;stroke-linejoin:miter;stroke-miterlimit:4;stroke-dasharray:2.12400007, 2.12400007000000013;stroke-dashoffset:0;stroke-opacity:1;marker:none;marker-start:none;marker-mid:none;marker-end:none;paint-order:normal"
       id="path1092"
       cx="397.5"
       cy="604.83331"
       r="33.5" />
    <path
       style="opacity:1;vector-effect:none;fill:#c8cbc5;fill-opacity:1;stroke:none;stroke-width:2.12400007;stroke-linecap:butt;stroke-linejoin:miter;stroke-miterlimit:4;stroke-dasharray:2.12400007, 2.12400007000000013;stroke-dashoffset:0;stroke-opacity:1;marker:none;marker-start:none;marker-mid:none;marker-end:none;paint-order:normal"
       d="m 288,677.33333 v 66.98242 h 142 c 18.29914,-0.27315 32.99243,-15.18124 33,-33.48242 -0.0118,-18.29814 -14.7039,-33.20151 -33,-33.47461 v -0.0254 h -0.5 z"
       id="circle1094"
       inkscape:connector-curvature="0"
       sodipodi:nodetypes="cccccccc" />
    <circle
       r="8.5"
       cy="711.83331"
       cx="427.5"
       id="circle1100"
       style="opacity:1;vector-effect:none;fill:#babdb6;fill-opacity:1;stroke:none;stroke-width:0.53892541;stroke-linecap:butt;stroke-linejoin:miter;stroke-miterlimit:4;stroke-dasharray:0.53892539, 0.53892539;stroke-dashoffset:0;stroke-opacity:1;marker:none;marker-start:none;marker-mid:none;marker-end:none;paint-order:normal" />
    <rect
       style="opacity:1;vector-effect:none;fill:#babdb6;fill-opacity:1;stroke:none;stroke-width:1.9362632;stroke-linecap:butt;stroke-linejoin:miter;stroke-miterlimit:4;stroke-dasharray:1.9362632, 1.9362632;stroke-dashoffset:0;stroke-opacity:1;marker:none;marker-start:none;marker-mid:none;marker-end:none;paint-order:normal"
       id="rect1104"
       width="92.98439"
       height="47.403801"
       x="300.72794"
       y="688.42664"
       rx="8.3798885"
       ry="8.3798885" />
    <g
       aria-label="1"
       style="font-style:normal;font-variant:normal;font-weight:bold;font-stretch:normal;font-size:7.9756074px;line-height:1.25;font-family:Montserrat;-inkscape-font-specification:'Montserrat, Bold';font-variant-ligatures:normal;font-variant-caps:normal;font-variant-numeric:normal;font-feature-settings:normal;text-align:center;letter-spacing:0px;word-spacing:0px;writing-mode:lr-tb;text-anchor:middle;fill:#000000;fill-opacity:1;stroke:none;stroke-width:0.10681806"
       id="text1633-3"
       transform="translate(12.279888,439.86946)">
      <path
         d="m 439.36372,372.62105 v 1.03683 h 1.11658 v 4.5461 h 1.29205 v -5.58293 z"
         style="font-size:7.9756074px;text-align:center;text-anchor:middle;stroke-width:0.10681806"
         id="path975-6"
         inkscape:connector-curvature="0" />
    </g>
  </g>
</svg>
